<svg xmlns="http://www.w3.org/2000/svg" data-name="Layer 1" viewBox="0 0 512 512"><g data-name="&lt;Group&gt;"><g data-name="&lt;Group&gt;"><path fill="#fdc75b" d="M372.6 106.63c-.57-.67-1.17-1.31-1.79-1.93a36.24 36.24 0 0 0-61.85 25.54 9.433 9.433 0 0 0-9.21 9.42v49.82a39.761 39.761 0 0 0 39.77 39.76h11.16a39.761 39.761 0 0 0 39.77-39.76V139.66a9.414 9.414 0 0 0-9.01-9.41A36 36 0 0 0 372.6 106.63zm5.19 174.28a127.554 127.554 0 1 1 95.1-123.37A127.444 127.444 0 0 1 377.79 280.91zM376.47 430.75a19.22 19.22 0 1 1-19.22 19.22A19.218 19.218 0 0 1 376.47 430.75z" data-name="&lt;Group&gt;"/><path fill="#ed664c" d="M390.45,178.68v10.8a39.761,39.761,0,0,1-39.77,39.76H345v-99h36.03c.14,0,.27,0,.41.01a9.414,9.414,0,0,1,9.01,9.41v39.02Z" data-name="&lt;Group&gt;"/><path fill="#ed664c" d="M318.59 105.74a36.169 36.169 0 0 1 52.22-1.04c.62.62 1.22 1.26 1.79 1.93a36 36 0 0 1 8.84 23.62c-.14-.01-.27-.01-.41-.01H308.96A36.077 36.077 0 0 1 318.59 105.74zM217.39 253h43.39a127.7 127.7 0 0 0 117.01 27.91V346.5a23.308 23.308 0 0 1-23.31 23.31H80.31A23.308 23.308 0 0 1 57 346.5V276.31A23.308 23.308 0 0 1 80.31 253zm-96.24 80.31a22.433 22.433 0 1 0-17.06-17.07A22.51 22.51 0 0 0 121.15 333.31z" data-name="&lt;Group&gt;"/><path fill="#ed664c" d="M308.96,130.24H345v99h-5.48a39.761,39.761,0,0,1-39.77-39.76V139.66A9.433,9.433,0,0,1,308.96,130.24Z" data-name="&lt;Group&gt;"/><path fill="#fdc75b" d="M240.08,427.28a32.219,32.219,0,1,1-22.69-9.34A31.969,31.969,0,0,1,240.08,427.28Z" data-name="&lt;Group&gt;"/><path fill="#ed664c" d="M237.73,89l.04.03a127.776,127.776,0,0,0-10.53,116.71l-.18.07H80.31A23.308,23.308,0,0,1,57,182.5V112.31A23.308,23.308,0,0,1,80.31,89ZM121.15,169.31a22.433,22.433,0,1,0-17.06-17.07A22.51,22.51,0,0,0,121.15,169.31Z" data-name="&lt;Group&gt;"/><path fill="#fdc75b" d="M147.9 142.57a22.432 22.432 0 1 1-17.07-17.07A22.51 22.51 0 0 1 147.9 142.57zM147.9 306.57a22.432 22.432 0 1 1-17.07-17.07A22.51 22.51 0 0 1 147.9 306.57zM58.32 430.75a19.22 19.22 0 1 1-19.21 19.22A19.22 19.22 0 0 1 58.32 430.75z" data-name="&lt;Group&gt;"/></g><g data-name="&lt;Group&gt;"><path d="M155,141.085c-3-11.191-11.36-19.994-22.557-22.426A29.256,29.256,0,1,0,155,141.087Zm-18.144,17.193a15.21,15.21,0,0,1-14.22,4.192,15.544,15.544,0,0,1-11.706-11.718,15.538,15.538,0,0,1,15.04-18.777,15.931,15.931,0,0,1,3.374.365,15.549,15.549,0,0,1,11.715,11.713A15.221,15.221,0,0,1,136.856,158.278Z" data-name="&lt;Compound Path&gt;"/><path d="M301,289.17a7,7,0,0,0-7,7v30.47a7,7,0,0,0,14,0V296.17A7,7,0,0,0,301,289.17Z" data-name="&lt;Path&gt;"/><path d="M155,305.085c-3-11.191-11.36-19.994-22.557-22.426A29.256,29.256,0,1,0,155,305.087Zm-18.144,17.193a15.212,15.212,0,0,1-14.22,4.192,15.544,15.544,0,0,1-11.706-11.718,15.538,15.538,0,0,1,15.04-18.777,15.931,15.931,0,0,1,3.374.365,15.549,15.549,0,0,1,11.715,11.713A15.221,15.221,0,0,1,136.856,322.278Z" data-name="&lt;Compound Path&gt;"/><path d="M271,289.17a7,7,0,0,0-7,7v30.47a7,7,0,0,0,14,0V296.17A7,7,0,0,0,271,289.17Z" data-name="&lt;Path&gt;"/><path d="M345.36,23A133.987,133.987,0,0,0,234.024,82H80.31A30.344,30.344,0,0,0,50,112.31V182.5A30.507,30.507,0,0,0,80.31,213H210v33H80.31A30.344,30.344,0,0,0,50,276.31V346.5A30.507,30.507,0,0,0,80.31,377H210v34.566a41.157,41.157,0,0,0-20.439,10.783A37.738,37.738,0,0,0,179,443H83.583a26.209,26.209,0,1,0,0,14h95.428a39.248,39.248,0,0,0,38.379,32.015,38.8,38.8,0,0,0,27.644-11.387A37.952,37.952,0,0,0,255.793,457h95.414a26.231,26.231,0,1,0,0-14H255.793A39.269,39.269,0,0,0,224,411.565V377H354.48A30.687,30.687,0,0,0,385,346.5V286.2A134.8,134.8,0,0,0,480,157.54C480,83.354,419.54,23,345.36,23ZM58.32,462.19a12.22,12.22,0,1,1,12.22-12.22A12.229,12.229,0,0,1,58.32,462.19Zm318.15-24.44a12.22,12.22,0,1,1-12.22,12.22A12.229,12.229,0,0,1,376.47,437.75ZM242.42,449.97a24.889,24.889,0,1,1-7.294-17.745A24.924,24.924,0,0,1,242.42,449.97ZM64,182.5V112.31A16.328,16.328,0,0,1,80.31,96H225.718a135.3,135.3,0,0,0-8.447,103H80.31A16.492,16.492,0,0,1,64,182.5Zm160,33.953c6,10.631,12.22,20.6,20.025,29.547H224ZM354.48,363H80.31A16.492,16.492,0,0,1,64,346.5V276.31A16.329,16.329,0,0,1,80.31,260H258.17a134,134,0,0,0,68.47,30.789A7.086,7.086,0,0,0,324,296.17v30.47a7,7,0,0,0,14,0V296.17a6.879,6.879,0,0,0-1.424-4.374c2.877.186,5.93.284,8.831.284A142.261,142.261,0,0,0,371,289.667V346.5A16.673,16.673,0,0,1,354.48,363Zm21.531-88.86a120.554,120.554,0,1,1,89.879-116.6A120.679,120.679,0,0,1,376.011,274.14Z" data-name="&lt;Compound Path&gt;"/><path d="M402.58,141H397v-1.34a16.179,16.179,0,0,0-9.14-14.837,42.936,42.936,0,0,0-6.367-17.809l12.154-13.676A6.984,6.984,0,1,0,383.2,84.062L372.167,96.547A42.855,42.855,0,0,0,345.2,87.07a43.313,43.313,0,0,0-26.03,8.76L307.921,83.121A7,7,0,0,0,297.438,92.4l12.029,13.6a42.808,42.808,0,0,0-7.016,18.774A16.411,16.411,0,0,0,293,139.66V141h-4.79A21.507,21.507,0,0,0,267,162.46v1.73a7,7,0,0,0,14,0v-1.73a7.5,7.5,0,0,1,7.21-7.46H293v16h-1.46A21.689,21.689,0,0,0,270,192.34v5.22a7,7,0,0,0,14,0v-5.22a7.68,7.68,0,0,1,7.54-7.34H293v4.48a46.55,46.55,0,0,0,1.737,12.874A21.232,21.232,0,0,0,280,222.46v5.31a7,7,0,0,0,14,0v-5.31a7.207,7.207,0,0,1,6.631-7.227A46.574,46.574,0,0,0,339.52,236h11.16c16.435,0,30.907-8,39.251-21h.289a6.728,6.728,0,0,1,6.78,6.99v5.78a7,7,0,0,0,14,0v-5.78a21.2,21.2,0,0,0-15.564-20.349A46.6,46.6,0,0,0,397,189.48V186h2.25a6.554,6.554,0,0,1,6.75,6.81v4.75a7,7,0,0,0,14,0v-4.75A20.561,20.561,0,0,0,399.25,172H397V155h5.58a7.679,7.679,0,0,1,7.42,7.46v1.73a7,7,0,1,0,14,0v-1.73A21.688,21.688,0,0,0,402.58,141Zm-36.718-31.348c.234.234.451.46.664.688a7,7,0,0,0,1.35,1.618c.041.037.088-.06.13-.025A29.113,29.113,0,0,1,373.56,123H316.832a32.516,32.516,0,0,1,6.627-12.321c.043-.041.089-.017.131-.06a6.782,6.782,0,0,0,.468-.494,29.152,29.152,0,0,1,41.8-.473ZM307,189.48V139.66a2.472,2.472,0,0,1,1.985-2.527c.032,0-.064-.133-.032-.133H338v85.2A32.589,32.589,0,0,1,307,189.48Zm45,32.727V137h29.073c.025,0-.176.123-.151.124A2.337,2.337,0,0,1,383,139.66v37.268c0,.561-.23,1.146-.23,1.752s.23,1.191.23,1.752v9.048A32.417,32.417,0,0,1,352,222.207Z" data-name="&lt;Compound Path&gt;"/></g></g></svg>